<svg xmlns="http://www.w3.org/2000/svg" viewBox="0 0 621.7 548.11"><defs><style>.cls-1{fill:#111a1d;}.cls-2{fill:#fff;}.cls-3{fill:#e6e6e6;}.cls-4{fill:#9b5de5;}.cls-5{fill:#00bbf9;}.cls-6{fill:#07e472;}.cls-7{fill:#7ddff9;}.cls-8{fill:#10546b;}</style></defs><g id="Layer_2" data-name="Layer 2"><g id="Layer_1-2" data-name="Layer 1"><path class="cls-1" d="M274.06,0C122.71,0,0,122.71,0,274.06S122.71,548.11,274.06,548.11s274.07-122.69,274.07-274S425.42,0,274.06,0Zm0,440.89A166.84,166.84,0,1,1,440.89,274.06,166.82,166.82,0,0,1,274.06,440.89Z"/><path class="cls-2" d="M166.58,460.56A215.44,215.44,0,0,1,122,426.36a5,5,0,0,0-7.1,7.11,226.75,226.75,0,0,0,46.65,35.79,5,5,0,0,0,5-8.7Z"/><path class="cls-2" d="M87.74,381.85A213.84,213.84,0,0,1,66.18,330a5,5,0,1,0-9.7,2.6,223.72,223.72,0,0,0,22.57,54.29,5,5,0,1,0,8.69-5Z"/><path class="cls-2" d="M494.29,268.56a5,5,0,0,0-5,5v.46a215.3,215.3,0,0,1-7.28,55.7,5,5,0,0,0,9.7,2.59,225.46,225.46,0,0,0,7.61-58.29v-.48A5,5,0,0,0,494.29,268.56Z"/><path class="cls-2" d="M274.19,489.28h-.13A215.78,215.78,0,0,1,218.48,482a5,5,0,1,0-2.58,9.7,225.87,225.87,0,0,0,58.16,7.58h.13a5,5,0,0,0,0-10Z"/><path class="cls-2" d="M58.84,274.3v-.25a215.29,215.29,0,0,1,7.22-55.46A5,5,0,0,0,56.35,216a225.81,225.81,0,0,0-7.55,58v.26a5,5,0,0,0,10,0Z"/><path class="cls-2" d="M467.36,379.82a5,5,0,0,0-6.85,1.83,216.37,216.37,0,0,1-34.22,44.56,5,5,0,1,0,7.1,7.09,226.66,226.66,0,0,0,35.81-46.62A5,5,0,0,0,467.36,379.82Z"/><path class="cls-2" d="M381.75,460.45A214,214,0,0,1,329.88,482a5,5,0,1,0,2.6,9.7,223.48,223.48,0,0,0,54.3-22.54,5,5,0,1,0-5-8.68Z"/><path class="cls-2" d="M381.35,87.44h0A216,216,0,0,1,426,121.59a5,5,0,0,0,7.09-7.11,226.15,226.15,0,0,0-46.69-35.74,5,5,0,0,0-5,8.7Z"/><path class="cls-2" d="M273.71,58.84h.35A215.82,215.82,0,0,1,329.42,66a5,5,0,1,0,2.57-9.7,225.45,225.45,0,0,0-57.93-7.52h-.37a5,5,0,0,0,0,10Z"/><path class="cls-2" d="M166.17,87.79A213.68,213.68,0,0,1,218,66.2a5,5,0,1,0-2.6-9.69,224,224,0,0,0-54.29,22.6,5,5,0,0,0,5,8.68Z"/><path class="cls-2" d="M80.65,168.51a5,5,0,0,0,6.85-1.84,216.08,216.08,0,0,1,34.18-44.6,5,5,0,0,0-7.11-7.08,225.71,225.71,0,0,0-35.76,46.66A5,5,0,0,0,80.65,168.51Z"/><path class="cls-2" d="M481.89,217.91a5,5,0,1,0,9.69-2.61A223.81,223.81,0,0,0,469,161a5,5,0,0,0-8.68,5A213.69,213.69,0,0,1,481.89,217.91Z"/><path class="cls-3" d="M244.18,356.37a37.43,37.43,0,0,1,37.43-37.43h0A37.43,37.43,0,0,1,319,356.37h0a37.43,37.43,0,0,1-37.43,37.43h0a37.43,37.43,0,0,1-37.43-37.43Z"/><path class="cls-1" d="M241.31,356.37a40.31,40.31,0,1,1,40.3,40.31A40.4,40.4,0,0,1,241.31,356.37Zm5.92,0A34.39,34.39,0,1,0,281.61,322,34.41,34.41,0,0,0,247.23,356.37Z"/><path class="cls-4" d="M281.61,344.51a11.86,11.86,0,0,1,11.86,11.86h0a11.85,11.85,0,0,1-11.86,11.85h0a11.86,11.86,0,0,1,0-23.71Z"/><path class="cls-3" d="M459.11,356.37a37.43,37.43,0,0,1,37.43-37.43h0A37.43,37.43,0,0,1,534,356.37h0a37.43,37.43,0,0,1-37.43,37.43h0a37.43,37.43,0,0,1-37.43-37.43Z"/><path class="cls-1" d="M456.23,356.37a40.31,40.31,0,1,1,40.31,40.31A40.4,40.4,0,0,1,456.23,356.37Zm5.93,0A34.38,34.38,0,1,0,496.54,322,34.4,34.4,0,0,0,462.16,356.37Z"/><path class="cls-4" d="M496.54,344.51a11.85,11.85,0,0,1,11.85,11.86h0a11.84,11.84,0,0,1-11.85,11.85h0a11.86,11.86,0,1,1,0-23.71Z"/><path class="cls-5" d="M186.43,255.93v94a9.3,9.3,0,0,0,9.32,9.32h35.9l1.86-17.45a6.21,6.21,0,0,1,6.1-5.42h84a6.07,6.07,0,0,1,6.09,5.42l1.87,17.45H449.29l2-17.79a33.08,33.08,0,0,1,32.69-29h25.57a32.81,32.81,0,0,1,32.69,29l2,17.79h41a18.58,18.58,0,0,0,18.63-18.63V284.05a45.92,45.92,0,0,0-13.21-32.18l-.17-.17a45.59,45.59,0,0,1-11.86-21L573.6,210A51.08,51.08,0,0,0,524,171.25H235.89a39.72,39.72,0,0,0-39,32Z"/><path class="cls-6" d="M196.08,271.18a94.65,94.65,0,0,0-9.65.5v16.26a61.26,61.26,0,0,1,9.65-.67,76.35,76.35,0,0,1,71.14,48.94h17.1A92.49,92.49,0,0,0,196.08,271.18Z"/><path class="cls-4" d="M196.25,294.55a61.5,61.5,0,0,0-9.65.68V311a58.33,58.33,0,0,1,9.65-.85A53.43,53.43,0,0,1,242,336.21h17.45A69.06,69.06,0,0,0,196.25,294.55Z"/><path class="cls-2" d="M196.08,307.76a61.77,61.77,0,0,0-9.65.85v15.92a35.8,35.8,0,0,1,9.65-1.19,40.21,40.21,0,0,1,36.76,24.39l.67-6.1a6.21,6.21,0,0,1,6.1-5.42h4.91A55.84,55.84,0,0,0,196.08,307.76Z"/><path class="cls-2" d="M618.82,328.08H603.75V302h15.07Z"/><path class="cls-1" d="M600.87,299.12h14.56a6.27,6.27,0,0,1,6.27,6.27V324.7a6.27,6.27,0,0,1-6.27,6.26H600.87Zm15.07,5.76H606.8V325h9.14Z"/><path class="cls-1" d="M183.55,349.59V255.26l10.5-52.85h0a42.8,42.8,0,0,1,41.84-34.21H524.15a54,54,0,0,1,52.33,41l5.08,20.66a42.87,42.87,0,0,0,11,19.65l.17.17a48,48,0,0,1,14.06,34.21v56.57a21.73,21.73,0,0,1-21.68,21.68H541.59l-2.37-20.33a30,30,0,0,0-29.81-26.42H483.84A30,30,0,0,0,454,341.8l-2.37,20.33H328.87l-2-20.16a3.15,3.15,0,0,0-3.21-2.88h-84a3.16,3.16,0,0,0-3.22,2.88l-2,20.16H195.75A12.33,12.33,0,0,1,183.55,349.59Zm46.92-8.13a9.13,9.13,0,0,1,9-8.13h84a9.13,9.13,0,0,1,9,8.13L334,356.37H446.41l1.86-15.08a35.86,35.86,0,0,1,35.57-31.67h25.57A36,36,0,0,1,545,341.29l1.86,15.08h38.28a15.83,15.83,0,0,0,15.75-15.75V284.05a42.83,42.83,0,0,0-12.36-30.15l-.17-.17a47.37,47.37,0,0,1-12.54-22.35l-5.08-20.67A48.17,48.17,0,0,0,524,174.13H235.72a37,37,0,0,0-36.08,29.64L189.31,256.1v93.66a6.44,6.44,0,0,0,6.44,6.44h33.36Z"/><path class="cls-2" d="M175.59,350.27v4.91a9.83,9.83,0,0,0,9.82,9.83h18.3a9.83,9.83,0,0,0,9.82-9.83v-4.74a9.82,9.82,0,0,0-9.82-9.82h-18.3A9.9,9.9,0,0,0,175.59,350.27Z"/><path class="cls-1" d="M172.71,355v-4.74a12.8,12.8,0,0,1,12.7-12.7h18.3a12.8,12.8,0,0,1,12.7,12.7V355a12.8,12.8,0,0,1-12.7,12.71h-18.3A12.69,12.69,0,0,1,172.71,355Zm12.7-11.51a6.79,6.79,0,0,0-6.77,6.77V355a6.8,6.8,0,0,0,6.77,6.78h18.3a6.8,6.8,0,0,0,6.77-6.78v-4.74a6.79,6.79,0,0,0-6.77-6.77Z"/><path class="cls-2" d="M196.93,203.26l-10.5,52.67v9.32H599.85a44.78,44.78,0,0,0-9.14-13.38l-.17-.17a45.59,45.59,0,0,1-11.86-21L573.6,210A51.08,51.08,0,0,0,524,171.25H235.72A39.54,39.54,0,0,0,196.93,203.26Z"/><path class="cls-1" d="M183.55,255.43l10.5-52.85a42.8,42.8,0,0,1,41.84-34.21H524.15a54,54,0,0,1,52.33,41L581.56,230a42.87,42.87,0,0,0,11,19.65l.17.17a48,48,0,0,1,9.65,14.22l1.87,4.07H183.55Zm405-1.53-.17-.17a47.42,47.42,0,0,1-12.54-22.35l-5.08-20.67A48.17,48.17,0,0,0,524,174.13H235.72a37,37,0,0,0-36.08,29.64L189.31,256.1v6.27H594.94A38.44,38.44,0,0,0,588.51,253.9Z"/><path class="cls-3" d="M473.67,188.19h50.48a34.08,34.08,0,0,1,33.19,25.91l5.08,20.66v.17a10.73,10.73,0,0,1-10.33,13.38H473.67a8.3,8.3,0,0,1-8.29-8.3V196.49A8.3,8.3,0,0,1,473.67,188.19Zm-37.26,51.48v-43a8.67,8.67,0,0,0-8.63-8.64h-85a8.67,8.67,0,0,0-8.64,8.64v43a8.67,8.67,0,0,0,8.64,8.64h85A8.77,8.77,0,0,0,436.41,239.67Zm-196.8,8.81h56.91a8.67,8.67,0,0,0,8.64-8.64v-43a8.67,8.67,0,0,0-8.64-8.64H249.6a22.69,22.69,0,0,0-22.35,18.29L223,228A17.23,17.23,0,0,0,239.61,248.48Z"/><path class="cls-7" d="M465.38,196.66v43.52a8.3,8.3,0,0,0,8.29,8.3h.17V209a8.32,8.32,0,0,1,8.3-8.3h50.47A34,34,0,0,1,556,209.87a34.28,34.28,0,0,0-31.84-21.68H473.67A8.34,8.34,0,0,0,465.38,196.66Z"/><path class="cls-7" d="M231.31,246.11a20.74,20.74,0,0,1,.17-5.59L235.72,219a23,23,0,0,1,22.35-18.29h47.09v-3.89a8.67,8.67,0,0,0-8.64-8.64H249.6a22.69,22.69,0,0,0-22.35,18.29L223,228A16.87,16.87,0,0,0,231.31,246.11Z"/><path class="cls-7" d="M334.12,196.83v43a8.52,8.52,0,0,0,8.47,8.64V209.36a8.67,8.67,0,0,1,8.63-8.64h85.19v-3.89a8.67,8.67,0,0,0-8.63-8.64h-85A8.67,8.67,0,0,0,334.12,196.83Z"/><path class="cls-1" d="M224.2,243.74a19.71,19.71,0,0,1-4.07-16.43l4.24-21.51a25.75,25.75,0,0,1,25.23-20.66h46.92A11.54,11.54,0,0,1,308,196.66v43a11.54,11.54,0,0,1-11.52,11.52H239.61A19.39,19.39,0,0,1,224.2,243.74Zm72.32-52.67H249.6A19.77,19.77,0,0,0,230.13,207l-4.24,21.51a13.77,13.77,0,0,0,2.88,11.68,14.08,14.08,0,0,0,10.84,5.08h56.91a5.64,5.64,0,0,0,5.59-5.59v-43a5.64,5.64,0,0,0-5.59-5.59Zm34.72,48.6v-43a11.53,11.53,0,0,1,11.52-11.52h85a11.53,11.53,0,0,1,11.51,11.52v43a11.53,11.53,0,0,1-11.51,11.52h-85A11.42,11.42,0,0,1,331.24,239.67Zm11.52-48.6a5.64,5.64,0,0,0-5.59,5.59v43a5.64,5.64,0,0,0,5.59,5.59h85a5.64,5.64,0,0,0,5.59-5.59v-43a5.64,5.64,0,0,0-5.59-5.59Zm119.57,48.77V196.32a11.28,11.28,0,0,1,11.18-11.18H524a37,37,0,0,1,36.07,28.11l5.25,20.84a14.07,14.07,0,0,1-2.54,11.85,13.14,13.14,0,0,1-10.67,5.25H473.67A11.35,11.35,0,0,1,462.33,239.84ZM524,191.07H473.67a5.45,5.45,0,0,0-5.41,5.42V240a5.45,5.45,0,0,0,5.41,5.42h78.42a8,8,0,0,0,6.1-3.05,7.46,7.46,0,0,0,1.35-6.77l-5.25-20.83A31.17,31.17,0,0,0,524,191.07Z"/><path class="cls-1" d="M528,247.3h-5.76V188.19H528Z"/><path class="cls-1" d="M536.85,258.47h-5.76V230.7h5.76Z"/><path class="cls-4" d="M547.35,295.06l1.69,8.3h5.42l1.7-8.3a4.43,4.43,0,0,0-4.41-5.25A4.51,4.51,0,0,0,547.35,295.06Z"/><path class="cls-4" d="M558,296.24l-6.27,5.59,2.71,4.74,8-2.71a4.52,4.52,0,0,0,2.37-6.43A4.58,4.58,0,0,0,558,296.24Z"/><path class="cls-4" d="M562.42,306.24l-8-2.71-2.71,4.74,6.27,5.59a4.47,4.47,0,1,0,4.4-7.62Z"/><path class="cls-4" d="M556,314.87l-1.7-8.3h-5.42l-1.69,8.3a4.42,4.42,0,0,0,4.4,5.25A4.5,4.5,0,0,0,556,314.87Z"/><path class="cls-4" d="M545.32,313.52l6.26-5.59-2.71-4.74-8,2.71a4.53,4.53,0,0,0-2.37,6.43A4.38,4.38,0,0,0,545.32,313.52Z"/><path class="cls-4" d="M541.08,303.69l8,2.71,2.71-4.74-6.26-5.59a4.49,4.49,0,0,0-6.78,1.19A4.32,4.32,0,0,0,541.08,303.69Z"/><path class="cls-6" d="M433.54,301.83l-3.05,9.66,5.76,3,6.43-7.62a5.35,5.35,0,0,0-1.52-8.13A5.43,5.43,0,0,0,433.54,301.83Z"/><path class="cls-6" d="M444,309.45l-9.83,2.21.17,6.43,9.83,1.69a5.39,5.39,0,0,0,6.26-5.41A5.17,5.17,0,0,0,444,309.45Z"/><path class="cls-6" d="M442.85,322l-6.77-7.46-5.59,3.39,3.38,9.49a5.34,5.34,0,1,0,9-5.42Z"/><path class="cls-6" d="M431.16,327.41l3-9.66-5.76-3.05L422,322.33a5.34,5.34,0,0,0,1.52,8.12A5.47,5.47,0,0,0,431.16,327.41Z"/><path class="cls-6" d="M420.66,319.78l9.83-2.2-.17-6.43-9.83-1.7a5.41,5.41,0,0,0-6.26,5.42A5.16,5.16,0,0,0,420.66,319.78Z"/><path class="cls-6" d="M421.85,307.25l6.77,7.45,5.59-3.38-3.38-9.49a5.34,5.34,0,1,0-9,5.42Z"/><path class="cls-2" d="M355.46,274.06l-2.2,7.11,4.23,2.37,4.91-5.76a4,4,0,1,0-6.94-3.72Z"/><path class="cls-2" d="M363.08,279.48l-7.28,1.69.17,4.91,7.45,1.36a4.07,4.07,0,1,0-.34-8Z"/><path class="cls-2" d="M362.4,289l-5.08-5.59-4.06,2.54L355.8,293a3.87,3.87,0,0,0,5.75,2A3.93,3.93,0,0,0,362.4,289Z"/><path class="cls-2" d="M353.76,293l2.21-7.11-4.24-2.37-4.91,5.76a4,4,0,1,0,6.94,3.72Z"/><path class="cls-2" d="M346.14,287.61l7.29-1.7-.17-4.91-7.46-1.35a4.1,4.1,0,0,0-4.74,4.06A4.27,4.27,0,0,0,346.14,287.61Z"/><path class="cls-2" d="M346.82,278l5.08,5.59L356,281l-2.54-7.11a3.89,3.89,0,0,0-5.76-2A4.07,4.07,0,0,0,346.82,278Z"/><path class="cls-8" d="M412.36,281.85l-1.86,5.92,3.56,1.87,4.06-4.74a3.33,3.33,0,1,0-5.76-3Z"/><path class="cls-8" d="M418.8,286.42l-6.1,1.35.17,4.07,6.1,1a3.44,3.44,0,0,0,3.9-3.39A3.26,3.26,0,0,0,418.8,286.42Z"/><path class="cls-8" d="M418.12,294.21l-4.23-4.57-3.39,2,2.2,5.93a3.24,3.24,0,0,0,4.75,1.69A3.41,3.41,0,0,0,418.12,294.21Z"/><path class="cls-8" d="M410.84,297.43l1.86-5.93-3.55-1.86-4.07,4.74a3.45,3.45,0,0,0,1,5.08A3.19,3.19,0,0,0,410.84,297.43Z"/><path class="cls-8" d="M404.4,292.86l6.1-1.36-.17-4.06-6.1-1a3.42,3.42,0,0,0-3.89,3.39C400.51,292,402.37,293.53,404.4,292.86Z"/><path class="cls-8" d="M405.25,285.23l4.24,4.58,3.38-2-2.2-5.92a3.23,3.23,0,0,0-4.74-1.7A3.19,3.19,0,0,0,405.25,285.23Z"/><path class="cls-1" d="M237.58,168a16.62,16.62,0,0,1,16.6-16.59h90.44A16.63,16.63,0,0,1,361.22,168v6.1H237.58Zm117.71.34V168a10.63,10.63,0,0,0-10.67-10.67H254.18A10.63,10.63,0,0,0,243.51,168v.34H355.29Z"/><path class="cls-1" d="M329.21,169.56h-5.76V154.31h5.76Z"/><path class="cls-1" d="M275.52,169.56h-5.76V154.31h5.76Z"/></g></g></svg>